<svg xmlns="http://www.w3.org/2000/svg" xmlns:xlink="http://www.w3.org/1999/xlink" width="324" zoomAndPan="magnify" viewBox="0 0 242.87999 171.750001" height="229" preserveAspectRatio="xMidYMid meet" version="1.0"><defs><clipPath id="d92524f47e"><path d="M 60.308594 0.597656 L 182.382812 0.597656 L 182.382812 124.167969 L 60.308594 124.167969 Z M 60.308594 0.597656 " clip-rule="nonzero"/></clipPath><clipPath id="75c0c2913c"><path d="M 40 77.546875 L 53 77.546875 L 53 171.160156 L 40 171.160156 Z M 40 77.546875 " clip-rule="nonzero"/></clipPath><clipPath id="10e7579405"><path d="M 0.207031 119 L 8 119 L 8 130 L 0.207031 130 Z M 0.207031 119 " clip-rule="nonzero"/></clipPath><clipPath id="5bb2bf9cc3"><path d="M 190 77.546875 L 202 77.546875 L 202 171.160156 L 190 171.160156 Z M 190 77.546875 " clip-rule="nonzero"/></clipPath><clipPath id="114e0cba3a"><path d="M 234 119 L 242.105469 119 L 242.105469 130 L 234 130 Z M 234 119 " clip-rule="nonzero"/></clipPath></defs><g clip-path="url(#d92524f47e)"><path fill="#737373" d="M 112.28125 24.234375 C 113.714844 25.746094 115.144531 27.257812 116.578125 28.769531 C 116.761719 28.960938 116.953125 29.167969 117.003906 29.429688 C 117.050781 29.667969 116.976562 29.914062 116.980469 30.160156 C 116.988281 30.710938 117.398438 31.164062 117.785156 31.558594 C 118.265625 32.050781 118.746094 32.546875 119.230469 33.039062 C 119.535156 33.355469 119.851562 33.6875 119.976562 34.105469 C 120.144531 34.675781 119.925781 35.285156 119.996094 35.875 C 120.042969 36.28125 120.230469 36.660156 120.40625 37.03125 C 121.425781 39.191406 122.199219 41.472656 122.695312 43.808594 C 122.8125 44.367188 122.90625 44.984375 122.605469 45.46875 C 122.335938 45.902344 121.824219 46.109375 121.417969 46.414062 C 121.011719 46.722656 120.683594 47.300781 120.972656 47.722656 C 121.101562 47.910156 121.320312 48.011719 121.527344 48.101562 C 123.75 49.03125 126.171875 49.351562 128.5625 49.660156 C 128.984375 49.714844 129.414062 49.769531 129.839844 49.71875 C 130.582031 49.636719 131.285156 49.214844 131.710938 48.597656 C 133.460938 46.066406 135.953125 44.121094 138.976562 43.503906 C 142.765625 42.730469 146.769531 44.121094 150.535156 43.242188 C 152.125 41.292969 154.304688 39.597656 156.671875 38.738281 C 158.328125 38.136719 160.183594 37.863281 161.847656 38.441406 C 162.25 38.582031 162.648438 38.773438 163.078125 38.796875 C 163.585938 38.820312 164.070312 38.601562 164.535156 38.390625 C 165.058594 38.148438 165.585938 37.90625 166.109375 37.664062 C 165.433594 34.410156 164.722656 30.875 164.835938 27.554688 C 164.863281 26.714844 164.941406 25.871094 164.90625 25.027344 C 164.886719 24.5625 164.832031 24.101562 164.765625 23.640625 C 164.480469 21.683594 163.984375 19.761719 163.285156 17.910156 C 162.515625 15.871094 161.5 13.929688 160.488281 11.992188 C 160.253906 11.546875 159.464844 11.464844 158.960938 11.496094 C 158.453125 11.523438 157.957031 11.667969 157.453125 11.710938 C 155.472656 11.882812 153.660156 10.527344 151.679688 10.359375 C 150.792969 10.285156 149.910156 10.449219 149.035156 10.605469 C 148.84375 10.640625 148.640625 10.675781 148.460938 10.601562 C 148.257812 10.523438 148.125 10.328125 148.015625 10.144531 C 147.792969 9.765625 147.597656 9.375 147.433594 8.96875 C 147.328125 8.703125 147.246094 8.382812 147.414062 8.160156 C 147.496094 8.046875 147.628906 7.980469 147.710938 7.871094 C 147.929688 7.585938 147.734375 7.167969 147.789062 6.8125 C 147.824219 6.597656 147.953125 6.410156 148.074219 6.230469 C 148.773438 5.171875 149.332031 4.019531 149.730469 2.8125 C 149.894531 2.304688 150.042969 1.769531 150.394531 1.367188 C 150.9375 0.746094 151.84375 0.582031 152.671875 0.597656 C 154.386719 0.632812 156.082031 1.273438 157.382812 2.382812 C 157.734375 2.683594 158.054688 3.011719 158.402344 3.316406 C 158.703125 3.574219 159.019531 3.8125 159.335938 4.050781 C 160.085938 4.617188 160.839844 5.183594 161.589844 5.75 C 162.160156 6.179688 162.734375 6.609375 163.304688 7.039062 C 164.027344 7.585938 164.757812 8.132812 165.546875 8.574219 C 166.957031 9.359375 167.238281 11.066406 168.054688 12.453125 C 168.550781 13.300781 169.160156 13.882812 169.730469 14.675781 C 170.796875 16.15625 171.863281 17.632812 172.925781 19.109375 C 173.632812 20.089844 174.339844 21.070312 175.007812 22.074219 C 178.601562 27.488281 181.066406 33.644531 182.195312 40.039062 C 182.332031 40.8125 181.945312 41.570312 181.503906 42.222656 C 181.058594 42.878906 180.460938 43.414062 179.878906 43.953125 C 176.921875 46.695312 174.3125 49.796875 171.371094 52.554688 C 168.425781 55.316406 165.0625 57.773438 161.179688 58.878906 C 157.703125 59.867188 153.8125 59.789062 150.828125 61.816406 C 146.910156 64.476562 148.253906 70.839844 146.492188 75.226562 C 145.714844 77.164062 144.632812 78.980469 144.015625 80.972656 C 142.804688 84.878906 141.976562 88.929688 140.265625 92.640625 C 139.632812 94.007812 138.910156 95.339844 138.507812 96.789062 C 137.714844 99.632812 138.214844 102.671875 138.9375 105.535156 C 139.652344 108.398438 140.589844 111.246094 140.664062 114.195312 C 140.746094 117.628906 142.554688 120.851562 143.503906 124.152344 L 98.617188 124.152344 C 99.394531 121.769531 100.242188 119.625 101.273438 117.335938 C 101.574219 116.664062 101.890625 115.988281 102.039062 115.269531 C 102.179688 114.589844 102.164062 113.890625 102.210938 113.199219 C 102.445312 109.574219 104.277344 106.09375 103.902344 102.480469 C 103.761719 101.148438 103.980469 99.828125 103.539062 98.566406 C 103.097656 97.300781 102.425781 96.128906 101.757812 94.96875 C 100.085938 92.066406 98.390625 89.15625 96.242188 86.589844 C 95.671875 87.34375 95.007812 88.109375 94.4375 88.863281 C 93.863281 89.625 93.285156 90.386719 92.675781 91.121094 C 90.222656 94.082031 87.195312 96.601562 83.730469 98.277344 C 81.734375 99.238281 79.597656 99.925781 77.703125 101.078125 C 76.804688 101.628906 75.960938 102.28125 74.988281 102.691406 C 73.890625 103.152344 72.679688 103.277344 71.488281 103.3125 C 69.617188 103.371094 67.648438 103.191406 66.089844 102.160156 C 65.472656 101.753906 65.210938 101.015625 64.878906 100.359375 C 64.445312 99.5 64.011719 98.640625 63.578125 97.785156 C 63.175781 96.980469 62.769531 96.179688 62.433594 95.347656 C 61.441406 92.890625 61.070312 90.230469 60.816406 87.589844 C 60.609375 85.453125 60.472656 83.304688 60.410156 81.15625 C 60.332031 78.429688 61.488281 75.675781 61.707031 72.957031 C 61.882812 70.769531 61.539062 68.507812 62.203125 66.417969 C 62.730469 64.757812 63.375 62.988281 64.261719 61.488281 C 66.117188 58.339844 67.976562 55.191406 69.832031 52.042969 C 69.964844 51.816406 70.101562 51.585938 70.300781 51.417969 C 70.726562 51.066406 71.351562 51.0625 71.871094 51.234375 C 72.394531 51.410156 72.855469 51.730469 73.339844 51.984375 C 74.558594 52.621094 75.964844 52.855469 77.132812 53.566406 C 77.320312 53.683594 77.507812 53.816406 77.613281 54.007812 C 77.726562 54.210938 77.730469 54.457031 77.792969 54.683594 C 77.925781 55.164062 78.304688 55.53125 78.601562 55.9375 C 78.894531 56.339844 79.113281 56.890625 78.878906 57.332031 C 78.78125 57.511719 78.621094 57.648438 78.460938 57.777344 C 77.730469 58.355469 76.902344 58.839844 76.34375 59.585938 C 76.046875 59.980469 75.835938 60.433594 75.550781 60.839844 C 74.070312 62.941406 70.855469 63.398438 69.632812 65.660156 C 69.167969 66.523438 69.070312 67.527344 69.050781 68.503906 C 69.019531 70.5 69.300781 72.496094 69.878906 74.40625 C 70.316406 75.847656 71.265625 76.949219 72.050781 78.238281 C 72.425781 78.855469 72.816406 79.46875 73.265625 80.039062 C 73.609375 80.476562 73.988281 80.890625 74.292969 81.359375 C 74.675781 81.949219 74.929688 82.609375 75.175781 83.265625 C 75.636719 82.382812 75.882812 81.371094 76.191406 80.425781 C 76.652344 79.015625 77.582031 77.796875 78.671875 76.792969 C 79.765625 75.789062 81.019531 74.984375 82.273438 74.191406 C 82.214844 72.230469 83.160156 70.394531 84.039062 68.640625 C 84.589844 67.542969 85.191406 66.46875 85.921875 65.484375 C 89.089844 61.195312 94.75 58.890625 100.023438 59.742188 C 100.457031 59.808594 100.964844 59.59375 101.273438 59.289062 C 102.460938 58.121094 103.648438 56.953125 104.832031 55.785156 C 105.222656 55.402344 105.613281 55.011719 105.890625 54.546875 C 106.484375 53.550781 106.488281 52.296875 106.160156 51.1875 C 105.832031 50.078125 105.203125 49.085938 104.574219 48.117188 C 104.15625 47.480469 103.722656 46.828125 103.113281 46.367188 C 102.714844 46.058594 102.253906 45.847656 101.824219 45.589844 C 100.144531 44.59375 98.863281 42.9375 97.023438 42.289062 C 94.523438 41.40625 92.605469 38.960938 91.683594 36.480469 C 91.316406 35.492188 91.171875 34.421875 91.261719 33.375 C 91.324219 32.644531 91.496094 31.929688 91.667969 31.214844 C 91.910156 30.214844 92.152344 29.214844 92.394531 28.210938 C 92.484375 27.828125 92.578125 27.441406 92.75 27.089844 C 93.105469 26.359375 93.757812 25.828125 94.394531 25.328125 C 95.792969 24.222656 97.210938 23.125 98.773438 22.269531 C 100.332031 21.410156 102.058594 20.789062 103.839844 20.707031 C 104.710938 20.667969 105.585938 20.753906 106.449219 20.875 C 107.550781 21.03125 108.660156 21.242188 109.671875 21.714844 C 110.679688 22.183594 111.515625 23.425781 112.28125 24.234375 Z M 112.28125 24.234375 " fill-opacity="1" fill-rule="nonzero"/></g><g clip-path="url(#75c0c2913c)"><path fill="#2c6934" d="M 40.539062 77.625 L 52.085938 77.625 L 52.085938 171.121094 L 40.539062 171.121094 Z M 40.539062 77.625 " fill-opacity="1" fill-rule="nonzero"/></g><path fill="#2c6934" d="M 25.695312 87.300781 L 37.242188 87.300781 L 37.242188 161.4375 L 25.695312 161.4375 Z M 25.695312 87.300781 " fill-opacity="1" fill-rule="nonzero"/><path fill="#2c6934" d="M 10.785156 96.863281 L 22.332031 96.863281 L 22.332031 151.875 L 10.785156 151.875 Z M 10.785156 96.863281 " fill-opacity="1" fill-rule="nonzero"/><g clip-path="url(#10e7579405)"><path fill="#2c6934" d="M 0.226562 119.292969 L 7.769531 119.292969 L 7.769531 129.445312 L 0.226562 129.445312 Z M 0.226562 119.292969 " fill-opacity="1" fill-rule="nonzero"/></g><path fill="#2c6934" d="M 55.386719 119.292969 L 186.871094 119.292969 L 186.871094 129.445312 L 55.386719 129.445312 Z M 55.386719 119.292969 " fill-opacity="1" fill-rule="nonzero"/><g clip-path="url(#5bb2bf9cc3)"><path fill="#2c6934" d="M 201.789062 77.625 L 190.242188 77.625 L 190.242188 171.121094 L 201.789062 171.121094 Z M 201.789062 77.625 " fill-opacity="1" fill-rule="nonzero"/></g><path fill="#2c6934" d="M 216.632812 87.300781 L 205.089844 87.300781 L 205.089844 161.4375 L 216.632812 161.4375 Z M 216.632812 87.300781 " fill-opacity="1" fill-rule="nonzero"/><path fill="#2c6934" d="M 231.480469 96.863281 L 219.933594 96.863281 L 219.933594 151.875 L 231.480469 151.875 Z M 231.480469 96.863281 " fill-opacity="1" fill-rule="nonzero"/><g clip-path="url(#114e0cba3a)"><path fill="#2c6934" d="M 242.101562 119.292969 L 234.5625 119.292969 L 234.5625 129.445312 L 242.101562 129.445312 Z M 242.101562 119.292969 " fill-opacity="1" fill-rule="nonzero"/></g></svg>