<svg xmlns="http://www.w3.org/2000/svg" xmlns:xlink="http://www.w3.org/1999/xlink" width="77" zoomAndPan="magnify" viewBox="0 0 57.75 41.25" height="55" preserveAspectRatio="xMidYMid meet" version="1.0"><defs><clipPath id="f2caf4b005"><path d="M 14.726562 0.605469 L 42.835938 0.605469 L 42.835938 29.457031 L 14.726562 29.457031 Z M 14.726562 0.605469 " clip-rule="nonzero"/></clipPath><clipPath id="79e16e1c42"><path d="M 10 18.449219 L 13 18.449219 L 13 39.90625 L 10 39.90625 Z M 10 18.449219 " clip-rule="nonzero"/></clipPath><clipPath id="4fa32a3086"><path d="M 0.789062 28 L 3 28 L 3 31 L 0.789062 31 Z M 0.789062 28 " clip-rule="nonzero"/></clipPath><clipPath id="6934cc762b"><path d="M 44 18.449219 L 48 18.449219 L 48 39.90625 L 44 39.90625 Z M 44 18.449219 " clip-rule="nonzero"/></clipPath><clipPath id="7e8652331e"><path d="M 55 28 L 57.011719 28 L 57.011719 31 L 55 31 Z M 55 28 " clip-rule="nonzero"/></clipPath></defs><g clip-path="url(#f2caf4b005)"><path fill="#737373" d="M 26.695312 6.125 C 27.023438 6.476562 27.355469 6.832031 27.683594 7.183594 C 27.726562 7.226562 27.769531 7.277344 27.78125 7.335938 C 27.792969 7.394531 27.773438 7.449219 27.777344 7.507812 C 27.777344 7.636719 27.871094 7.742188 27.960938 7.835938 C 28.070312 7.949219 28.183594 8.066406 28.292969 8.179688 C 28.363281 8.253906 28.4375 8.332031 28.464844 8.429688 C 28.503906 8.5625 28.453125 8.703125 28.46875 8.84375 C 28.480469 8.9375 28.523438 9.027344 28.566406 9.113281 C 28.800781 9.617188 28.976562 10.148438 29.09375 10.695312 C 29.117188 10.824219 29.140625 10.96875 29.070312 11.082031 C 29.007812 11.183594 28.890625 11.230469 28.796875 11.304688 C 28.703125 11.375 28.628906 11.511719 28.695312 11.609375 C 28.726562 11.652344 28.773438 11.675781 28.824219 11.695312 C 29.335938 11.914062 29.894531 11.988281 30.441406 12.0625 C 30.539062 12.074219 30.640625 12.085938 30.738281 12.074219 C 30.910156 12.054688 31.070312 11.957031 31.167969 11.8125 C 31.570312 11.222656 32.144531 10.769531 32.839844 10.625 C 33.714844 10.441406 34.636719 10.769531 35.503906 10.5625 C 35.871094 10.105469 36.371094 9.710938 36.917969 9.511719 C 37.296875 9.371094 37.726562 9.304688 38.109375 9.441406 C 38.199219 9.472656 38.292969 9.519531 38.390625 9.523438 C 38.507812 9.53125 38.621094 9.480469 38.726562 9.429688 C 38.847656 9.371094 38.96875 9.316406 39.089844 9.261719 C 38.933594 8.5 38.769531 7.675781 38.796875 6.898438 C 38.804688 6.703125 38.820312 6.507812 38.8125 6.308594 C 38.808594 6.203125 38.796875 6.09375 38.78125 5.984375 C 38.714844 5.527344 38.601562 5.078125 38.441406 4.648438 C 38.261719 4.171875 38.027344 3.71875 37.796875 3.265625 C 37.742188 3.160156 37.558594 3.144531 37.441406 3.148438 C 37.328125 3.15625 37.210938 3.191406 37.097656 3.199219 C 36.640625 3.242188 36.222656 2.925781 35.765625 2.886719 C 35.5625 2.867188 35.359375 2.90625 35.15625 2.941406 C 35.113281 2.949219 35.066406 2.957031 35.023438 2.941406 C 34.980469 2.921875 34.949219 2.878906 34.921875 2.835938 C 34.871094 2.746094 34.828125 2.65625 34.789062 2.558594 C 34.765625 2.5 34.746094 2.421875 34.785156 2.371094 C 34.804688 2.34375 34.832031 2.328125 34.851562 2.304688 C 34.902344 2.238281 34.859375 2.140625 34.871094 2.058594 C 34.878906 2.007812 34.910156 1.964844 34.9375 1.921875 C 35.097656 1.671875 35.226562 1.402344 35.316406 1.121094 C 35.355469 1.003906 35.390625 0.878906 35.472656 0.785156 C 35.597656 0.640625 35.804688 0.601562 35.996094 0.605469 C 36.390625 0.613281 36.78125 0.761719 37.082031 1.023438 C 37.160156 1.09375 37.234375 1.167969 37.316406 1.238281 C 37.382812 1.300781 37.457031 1.355469 37.53125 1.410156 C 37.703125 1.542969 37.875 1.675781 38.046875 1.808594 C 38.179688 1.910156 38.3125 2.007812 38.445312 2.109375 C 38.609375 2.238281 38.777344 2.363281 38.960938 2.46875 C 39.285156 2.652344 39.351562 3.050781 39.539062 3.375 C 39.652344 3.570312 39.792969 3.707031 39.921875 3.894531 C 40.167969 4.238281 40.414062 4.582031 40.660156 4.925781 C 40.820312 5.15625 40.984375 5.386719 41.136719 5.621094 C 41.964844 6.882812 42.535156 8.320312 42.792969 9.8125 C 42.824219 9.996094 42.734375 10.171875 42.632812 10.324219 C 42.53125 10.476562 42.394531 10.601562 42.261719 10.726562 C 41.578125 11.371094 40.980469 12.09375 40.300781 12.738281 C 39.621094 13.382812 38.847656 13.957031 37.953125 14.214844 C 37.152344 14.445312 36.257812 14.425781 35.570312 14.898438 C 34.667969 15.519531 34.976562 17.007812 34.570312 18.03125 C 34.394531 18.484375 34.144531 18.90625 34 19.371094 C 33.722656 20.285156 33.53125 21.230469 33.136719 22.097656 C 32.992188 22.414062 32.828125 22.726562 32.734375 23.066406 C 32.550781 23.730469 32.667969 24.4375 32.832031 25.105469 C 32.996094 25.773438 33.214844 26.441406 33.230469 27.128906 C 33.25 27.929688 33.664062 28.683594 33.882812 29.453125 L 23.546875 29.453125 C 23.726562 28.898438 23.921875 28.394531 24.160156 27.863281 C 24.226562 27.707031 24.300781 27.546875 24.335938 27.378906 C 24.367188 27.222656 24.363281 27.058594 24.375 26.894531 C 24.429688 26.050781 24.851562 25.238281 24.765625 24.394531 C 24.734375 24.082031 24.78125 23.773438 24.679688 23.480469 C 24.578125 23.183594 24.425781 22.910156 24.269531 22.640625 C 23.886719 21.960938 23.496094 21.285156 23 20.683594 C 22.871094 20.859375 22.714844 21.039062 22.585938 21.214844 C 22.453125 21.394531 22.320312 21.570312 22.179688 21.742188 C 21.613281 22.433594 20.917969 23.019531 20.121094 23.414062 C 19.660156 23.636719 19.167969 23.796875 18.730469 24.066406 C 18.523438 24.195312 18.332031 24.347656 18.105469 24.441406 C 17.855469 24.550781 17.574219 24.578125 17.300781 24.589844 C 16.871094 24.601562 16.417969 24.558594 16.058594 24.320312 C 15.914062 24.222656 15.855469 24.050781 15.777344 23.898438 C 15.679688 23.699219 15.578125 23.496094 15.480469 23.296875 C 15.386719 23.109375 15.292969 22.921875 15.214844 22.726562 C 14.988281 22.15625 14.902344 21.535156 14.84375 20.917969 C 14.796875 20.417969 14.765625 19.917969 14.75 19.414062 C 14.730469 18.777344 14.996094 18.136719 15.046875 17.5 C 15.089844 16.988281 15.007812 16.460938 15.164062 15.972656 C 15.285156 15.585938 15.433594 15.171875 15.636719 14.824219 C 16.0625 14.085938 16.492188 13.351562 16.917969 12.617188 C 16.949219 12.5625 16.980469 12.511719 17.027344 12.472656 C 17.125 12.390625 17.269531 12.390625 17.390625 12.429688 C 17.507812 12.46875 17.613281 12.542969 17.726562 12.605469 C 18.007812 12.753906 18.332031 12.808594 18.601562 12.972656 C 18.644531 13 18.6875 13.03125 18.710938 13.074219 C 18.738281 13.125 18.738281 13.179688 18.753906 13.234375 C 18.78125 13.347656 18.871094 13.433594 18.9375 13.527344 C 19.007812 13.621094 19.054688 13.75 19.003906 13.851562 C 18.980469 13.894531 18.941406 13.925781 18.90625 13.957031 C 18.738281 14.089844 18.546875 14.203125 18.417969 14.378906 C 18.351562 14.46875 18.300781 14.578125 18.234375 14.671875 C 17.894531 15.164062 17.152344 15.269531 16.871094 15.796875 C 16.765625 15.996094 16.742188 16.234375 16.738281 16.460938 C 16.730469 16.925781 16.796875 17.394531 16.929688 17.839844 C 17.03125 18.175781 17.25 18.433594 17.429688 18.734375 C 17.515625 18.878906 17.605469 19.019531 17.710938 19.152344 C 17.789062 19.257812 17.875 19.351562 17.945312 19.460938 C 18.035156 19.601562 18.09375 19.753906 18.148438 19.90625 C 18.253906 19.703125 18.3125 19.464844 18.382812 19.246094 C 18.488281 18.914062 18.703125 18.628906 18.953125 18.394531 C 19.207031 18.164062 19.496094 17.972656 19.785156 17.789062 C 19.769531 17.332031 19.988281 16.902344 20.191406 16.492188 C 20.316406 16.238281 20.457031 15.984375 20.625 15.753906 C 21.355469 14.753906 22.65625 14.214844 23.871094 14.414062 C 23.972656 14.429688 24.089844 14.378906 24.160156 14.308594 C 24.433594 14.035156 24.707031 13.761719 24.980469 13.492188 C 25.066406 13.402344 25.160156 13.3125 25.222656 13.203125 C 25.359375 12.96875 25.359375 12.675781 25.285156 12.417969 C 25.207031 12.160156 25.0625 11.925781 24.917969 11.699219 C 24.824219 11.550781 24.722656 11.398438 24.582031 11.292969 C 24.492188 11.21875 24.386719 11.171875 24.285156 11.109375 C 23.898438 10.878906 23.605469 10.492188 23.179688 10.339844 C 22.605469 10.132812 22.164062 9.5625 21.949219 8.984375 C 21.867188 8.753906 21.832031 8.503906 21.855469 8.257812 C 21.867188 8.089844 21.90625 7.921875 21.945312 7.753906 C 22.003906 7.519531 22.058594 7.285156 22.113281 7.054688 C 22.136719 6.964844 22.15625 6.875 22.195312 6.789062 C 22.277344 6.621094 22.429688 6.496094 22.574219 6.378906 C 22.898438 6.121094 23.222656 5.867188 23.582031 5.664062 C 23.941406 5.464844 24.339844 5.320312 24.75 5.300781 C 24.949219 5.292969 25.152344 5.3125 25.351562 5.339844 C 25.605469 5.375 25.859375 5.425781 26.09375 5.535156 C 26.324219 5.644531 26.519531 5.933594 26.695312 6.125 Z M 26.695312 6.125 " fill-opacity="1" fill-rule="nonzero"/></g><g clip-path="url(#79e16e1c42)"><path fill="#d9d9d9" d="M 10.160156 18.46875 L 12.84375 18.46875 L 12.84375 39.894531 L 10.160156 39.894531 Z M 10.160156 18.46875 " fill-opacity="1" fill-rule="nonzero"/></g><path fill="#d9d9d9" d="M 6.710938 20.6875 L 9.394531 20.6875 L 9.394531 37.675781 L 6.710938 37.675781 Z M 6.710938 20.6875 " fill-opacity="1" fill-rule="nonzero"/><path fill="#d9d9d9" d="M 3.246094 22.878906 L 5.929688 22.878906 L 5.929688 35.484375 L 3.246094 35.484375 Z M 3.246094 22.878906 " fill-opacity="1" fill-rule="nonzero"/><g clip-path="url(#4fa32a3086)"><path fill="#d9d9d9" d="M 0.792969 28.015625 L 2.542969 28.015625 L 2.542969 30.34375 L 0.792969 30.34375 Z M 0.792969 28.015625 " fill-opacity="1" fill-rule="nonzero"/></g><path fill="#d9d9d9" d="M 13.613281 28.015625 L 44.175781 28.015625 L 44.175781 30.34375 L 13.613281 30.34375 Z M 13.613281 28.015625 " fill-opacity="1" fill-rule="nonzero"/><g clip-path="url(#6934cc762b)"><path fill="#d9d9d9" d="M 47.640625 18.46875 L 44.957031 18.46875 L 44.957031 39.894531 L 47.640625 39.894531 Z M 47.640625 18.46875 " fill-opacity="1" fill-rule="nonzero"/></g><path fill="#d9d9d9" d="M 51.089844 20.6875 L 48.40625 20.6875 L 48.40625 37.675781 L 51.089844 37.675781 Z M 51.089844 20.6875 " fill-opacity="1" fill-rule="nonzero"/><path fill="#d9d9d9" d="M 54.542969 22.878906 L 51.859375 22.878906 L 51.859375 35.484375 L 54.542969 35.484375 Z M 54.542969 22.878906 " fill-opacity="1" fill-rule="nonzero"/><g clip-path="url(#7e8652331e)"><path fill="#d9d9d9" d="M 57.011719 28.015625 L 55.257812 28.015625 L 55.257812 30.34375 L 57.011719 30.34375 Z M 57.011719 28.015625 " fill-opacity="1" fill-rule="nonzero"/></g></svg>