<svg xmlns="http://www.w3.org/2000/svg" xmlns:xlink="http://www.w3.org/1999/xlink" width="55" zoomAndPan="magnify" viewBox="0 0 41.25 41.250001" height="55" preserveAspectRatio="xMidYMid meet" version="1.0"><defs><clipPath id="f79084196e"><path d="M 0.578125 0.40625 L 40.355469 0.40625 L 40.355469 40.183594 L 0.578125 40.183594 Z M 0.578125 0.40625 " clip-rule="nonzero"/></clipPath><clipPath id="8e2ccbd0e7"><path d="M 3.742188 15.566406 L 8.160156 15.566406 L 8.160156 19.984375 L 3.742188 19.984375 Z M 3.742188 15.566406 " clip-rule="nonzero"/></clipPath></defs><g clip-path="url(#f79084196e)"><path fill="#d9d9d9" d="M 20.464844 0.40625 C 9.480469 0.40625 0.578125 9.3125 0.578125 20.296875 C 0.578125 31.277344 9.480469 40.183594 20.464844 40.183594 C 31.449219 40.183594 40.355469 31.277344 40.355469 20.296875 C 40.355469 9.3125 31.449219 0.40625 20.464844 0.40625 Z M 20.464844 7.398438 C 23.34375 7.398438 25.671875 10.152344 25.671875 13.554688 C 25.671875 16.953125 23.34375 19.707031 20.464844 19.707031 C 17.589844 19.707031 15.257812 16.953125 15.257812 13.554688 C 15.257812 10.152344 17.589844 7.398438 20.464844 7.398438 Z M 29.28125 31.636719 L 11.652344 31.636719 C 10.765625 31.636719 10.050781 30.921875 10.050781 30.035156 C 10.050781 25.902344 14.714844 22.546875 20.464844 22.546875 C 26.21875 22.546875 30.882812 25.902344 30.882812 30.035156 C 30.882812 30.921875 30.164062 31.636719 29.28125 31.636719 Z M 29.28125 31.636719 " fill-opacity="1" fill-rule="nonzero"/></g><g clip-path="url(#8e2ccbd0e7)"><path fill="#d9d9d9" d="M 5.953125 15.566406 C 4.730469 15.566406 3.742188 16.554688 3.742188 17.773438 C 3.742188 18.996094 4.730469 19.984375 5.953125 19.984375 C 7.171875 19.984375 8.160156 18.996094 8.160156 17.773438 C 8.160156 16.554688 7.171875 15.566406 5.953125 15.566406 Z M 5.953125 16.34375 C 6.273438 16.34375 6.53125 16.648438 6.53125 17.027344 C 6.53125 17.402344 6.273438 17.710938 5.953125 17.710938 C 5.632812 17.710938 5.375 17.402344 5.375 17.027344 C 5.375 16.648438 5.632812 16.34375 5.953125 16.34375 Z M 6.929688 19.035156 L 4.972656 19.035156 C 4.875 19.035156 4.792969 18.957031 4.792969 18.855469 C 4.792969 18.398438 5.3125 18.023438 5.953125 18.023438 C 6.589844 18.023438 7.109375 18.398438 7.109375 18.855469 C 7.109375 18.957031 7.03125 19.035156 6.929688 19.035156 Z M 6.929688 19.035156 " fill-opacity="1" fill-rule="nonzero"/></g></svg>