<svg xmlns="http://www.w3.org/2000/svg" xmlns:xlink="http://www.w3.org/1999/xlink" width="128" zoomAndPan="magnify" viewBox="0 0 96 95.999999" height="128" preserveAspectRatio="xMidYMid meet" version="1.0"><defs><clipPath id="fb02c0e0e1"><path d="M 0.726562 0.710938 L 95.226562 0.710938 L 95.226562 95.210938 L 0.726562 95.210938 Z M 0.726562 0.710938 " clip-rule="nonzero"/></clipPath><clipPath id="e90fb36c64"><path d="M 33.976562 74.410156 L 42.976562 74.410156 L 42.976562 83.410156 L 33.976562 83.410156 Z M 33.976562 74.410156 " clip-rule="nonzero"/></clipPath></defs><g clip-path="url(#fb02c0e0e1)"><path fill="#a6a6a6" d="M 81.386719 14.550781 C 72.464844 5.625 60.597656 0.710938 47.976562 0.710938 C 35.355469 0.710938 23.492188 5.625 14.566406 14.550781 C 5.644531 23.472656 0.726562 35.339844 0.726562 47.960938 C 0.726562 60.582031 5.644531 72.445312 14.566406 81.371094 C 23.492188 90.292969 35.355469 95.207031 47.976562 95.207031 C 60.597656 95.207031 72.464844 90.292969 81.386719 81.371094 C 90.3125 72.445312 95.226562 60.582031 95.226562 47.960938 C 95.226562 35.339844 90.3125 23.472656 81.386719 14.550781 Z M 16.710938 16.695312 C 25.0625 8.34375 36.167969 3.742188 47.976562 3.742188 C 59.789062 3.742188 70.890625 8.34375 79.242188 16.695312 C 87.59375 25.046875 92.195312 36.148438 92.195312 47.960938 C 92.195312 57.777344 89.011719 67.105469 83.144531 74.773438 C 78.472656 68.238281 71.011719 64.382812 62.910156 64.382812 L 33.042969 64.382812 C 24.945312 64.382812 17.484375 68.238281 12.8125 74.773438 C 6.941406 67.105469 3.761719 57.777344 3.761719 47.960938 C 3.761719 36.148438 8.359375 25.046875 16.710938 16.695312 Z M 47.976562 61.890625 C 60.117188 61.890625 69.992188 52.015625 69.992188 39.875 C 69.992188 27.734375 60.117188 17.859375 47.976562 17.859375 C 35.839844 17.859375 25.960938 27.734375 25.960938 39.875 C 25.960938 52.015625 35.839844 61.890625 47.976562 61.890625 Z M 47.976562 61.890625 " fill-opacity="1" fill-rule="nonzero"/></g><g clip-path="url(#e90fb36c64)"><path fill="#a6a6a6" d="M 41.660156 75.730469 C 40.808594 74.878906 39.679688 74.410156 38.476562 74.410156 C 37.273438 74.410156 36.144531 74.878906 35.296875 75.730469 C 34.445312 76.578125 33.976562 77.710938 33.976562 78.910156 C 33.976562 80.113281 34.445312 81.242188 35.296875 82.09375 C 36.144531 82.941406 37.273438 83.410156 38.476562 83.410156 C 39.679688 83.410156 40.808594 82.941406 41.660156 82.09375 C 42.507812 81.242188 42.976562 80.113281 42.976562 78.910156 C 42.976562 77.710938 42.507812 76.578125 41.660156 75.730469 Z M 35.5 75.933594 C 36.292969 75.136719 37.351562 74.699219 38.476562 74.699219 C 39.601562 74.699219 40.660156 75.136719 41.453125 75.933594 C 42.25 76.730469 42.6875 77.785156 42.6875 78.910156 C 42.6875 79.847656 42.386719 80.734375 41.824219 81.464844 C 41.382812 80.84375 40.671875 80.476562 39.898438 80.476562 L 37.054688 80.476562 C 36.285156 80.476562 35.574219 80.84375 35.128906 81.464844 C 34.570312 80.734375 34.265625 79.847656 34.265625 78.910156 C 34.265625 77.785156 34.703125 76.730469 35.5 75.933594 Z M 38.476562 80.238281 C 39.632812 80.238281 40.574219 79.296875 40.574219 78.140625 C 40.574219 76.984375 39.632812 76.042969 38.476562 76.042969 C 37.320312 76.042969 36.378906 76.984375 36.378906 78.140625 C 36.378906 79.296875 37.320312 80.238281 38.476562 80.238281 Z M 38.476562 80.238281 " fill-opacity="1" fill-rule="nonzero"/></g></svg>